<?xml version="1.0" encoding="UTF-8"?>
<svg width="16px" height="16px" viewBox="0 0 16 16" version="1.1" xmlns="http://www.w3.org/2000/svg" xmlns:xlink="http://www.w3.org/1999/xlink">
    <!-- Generator: Sketch 55.2 (78181) - https://sketchapp.com -->
    <title>No Cell Icon29</title>
    <desc>Created with Sketch.</desc>
    <g id="No-Cell-Icon29" stroke="none" stroke-width="1" fill="none" fill-rule="evenodd">
        <g id="Round-Error-Red">
            <circle id="Oval-3-Copy-2" fill="#F5797C" cx="8" cy="8" r="7"></circle>
            <path d="M8,15 C11.8659932,15 15,11.8659932 15,8 C15,4.13400675 11.8659932,1 8,1 C4.13400675,1 1,4.13400675 1,8 C1,11.8659932 4.13400675,15 8,15 Z M8,16 C3.581722,16 0,12.418278 0,8 C0,3.581722 3.581722,0 8,0 C12.418278,0 16,3.581722 16,8 C16,12.418278 12.418278,16 8,16 Z" id="Oval-3-Copy-2" fill="#D14538" fill-rule="nonzero"></path>
            <path d="M8,6.54545455 L10.5454545,4 L12,5.45454545 L9.45454545,8 L12,10.5454545 L10.5454545,12 L8,9.45454545 L5.45454545,12 L4,10.5454545 L6.54545455,8 L4,5.45454545 L5.45454545,4 L8,6.54545455 Z" id="Combined-Shape-Copy-2" fill="#FFFFFF"></path>
        </g>
    </g>
</svg>