<?xml version="1.0" encoding="UTF-8"?>
<svg width="16px" height="16px" viewBox="0 0 16 16" version="1.1" xmlns="http://www.w3.org/2000/svg" xmlns:xlink="http://www.w3.org/1999/xlink">
    <!-- Generator: Sketch 55.2 (78181) - https://sketchapp.com -->
    <title>No Cell Icon37</title>
    <desc>Created with Sketch.</desc>
    <g id="No-Cell-Icon37" stroke="none" stroke-width="1" fill="none" fill-rule="evenodd">
        <g id="Star-Half">
            <polygon id="Star" fill="#FFFFFF" points="8 12.5 3.88550323 14.663119 4.67130219 10.0815595 1.34260439 6.83688104 5.94275162 6.16844052 8 2 10.0572484 6.16844052 14.6573956 6.83688104 11.3286978 10.0815595 12.1144968 14.663119"></polygon>
            <path d="M8,2 L8,12.5 L3.88550323,14.663119 L4.67130219,10.0815595 L1.34260439,6.83688104 L5.94275162,6.16844052 L8,2 Z" id="Combined-Shape" fill="#FFD95D"></path>
            <path d="M8,12.0178244 L11.5477923,13.9789957 L10.8702243,9.82516815 L13.7404485,6.88341112 L9.77389615,6.27737584 L8,2.49809866 L6.22610385,6.27737584 L2.25955146,6.88341112 L5.12977573,9.82516815 L4.45220769,13.9789957 L8,12.0178244 Z M14.6890563,5.91116181 L15.4864656,6.0329951 L15.628403,6.49231425 L15.0513922,7.08370549 L13.7404485,6.88341112 L14.6890563,5.91116181 Z M7.41372816,1.24904933 L7.77034042,0.489288617 L8.22965958,0.489288617 L8.58627184,1.24904933 L8,2.49809866 L7.41372816,1.24904933 Z M8,13.2668737 L3.05572809,16 L4,10.2111456 L0,6.11145618 L5.52786405,5.26687371 L8,0 L10.472136,5.26687371 L16,6.11145618 L12,10.2111456 L12.9442719,16 L8,13.2668737 Z" id="Star" fill="#EE8815" fill-rule="nonzero"></path>
        </g>
    </g>
</svg>