<?xml version="1.0" encoding="UTF-8"?>
<svg width="16px" height="16px" viewBox="0 0 16 16" version="1.1" xmlns="http://www.w3.org/2000/svg" xmlns:xlink="http://www.w3.org/1999/xlink">
    <!-- Generator: Sketch 55.2 (78181) - https://sketchapp.com -->
    <title>No Cell Icon6</title>
    <desc>Created with Sketch.</desc>
    <g id="No-Cell-Icon6" stroke="none" stroke-width="1" fill="none" fill-rule="evenodd">
        <g id="Gray-Down">
            <path d="M5,8 L0,8 L8,0 L16,8 L11,8 L11,16 L5,16 L5,8 Z" id="Combined-Shape-Copy-17" fill="#ADADAD" transform="translate(8.000000, 8.000000) rotate(-180.000000) translate(-8.000000, -8.000000) "></path>
            <path d="M6,7 L6,15 L10,15 L10,7 L13.5857864,7 L8,1.41421356 L2.41421356,7 L6,7 Z M15,7 L15.7071068,7.70710678 L15.5857864,8 L14.5857864,8 L13.5857864,7 L15,7 Z M5,8 L0,8 L8,0 L16,8 L11,8 L11,16 L5,16 L5,8 Z" id="Combined-Shape-Copy-17" fill="#333333" fill-rule="nonzero" transform="translate(8.000000, 8.000000) rotate(-180.000000) translate(-8.000000, -8.000000) "></path>
        </g>
    </g>
</svg>