<?xml version="1.0" encoding="UTF-8"?>
<svg width="16px" height="16px" viewBox="0 0 16 16" version="1.1" xmlns="http://www.w3.org/2000/svg" xmlns:xlink="http://www.w3.org/1999/xlink">
    <!-- Generator: Sketch 55.2 (78181) - https://sketchapp.com -->
    <title>No Cell Icon49</title>
    <desc>Created with Sketch.</desc>
    <g id="No-Cell-Icon49" stroke="none" stroke-width="1" fill="none" fill-rule="evenodd">
        <g id="Layout1" transform="translate(1.000000, 1.000000)">
            <rect id="Rectangle-32" fill="#476CCF" x="0" y="0" width="7" height="7"></rect>
            <rect id="Rectangle-32-Copy" fill="#476CCF" x="8" y="0" width="7" height="7"></rect>
            <rect id="Rectangle-32-Copy-2" fill="#476CCF" x="8" y="8" width="7" height="7"></rect>
            <rect id="Rectangle-32-Copy-3" fill="#476CCF" x="0" y="8" width="7" height="7"></rect>
            <path d="M1,1 L1,6 L6,6 L6,1 L1,1 Z M0,0 L7,0 L7,7 L0,7 L0,0 Z" id="Rectangle-32" fill="#143CA9" fill-rule="nonzero"></path>
            <path d="M9,1 L9,6 L14,6 L14,1 L9,1 Z M8,0 L15,0 L15,7 L8,7 L8,0 Z" id="Rectangle-32-Copy" fill="#143CA9" fill-rule="nonzero"></path>
            <path d="M9,9 L9,14 L14,14 L14,9 L9,9 Z M8,8 L15,8 L15,15 L8,15 L8,8 Z" id="Rectangle-32-Copy-2" fill="#143CA9" fill-rule="nonzero"></path>
            <path d="M1,9 L1,14 L6,14 L6,9 L1,9 Z M0,8 L7,8 L7,15 L0,15 L0,8 Z" id="Rectangle-32-Copy-3" fill="#143CA9" fill-rule="nonzero"></path>
        </g>
    </g>
</svg>