<?xml version="1.0" encoding="UTF-8"?>
<svg width="16px" height="16px" viewBox="0 0 16 16" version="1.1" xmlns="http://www.w3.org/2000/svg" xmlns:xlink="http://www.w3.org/1999/xlink">
    <!-- Generator: Sketch 55.2 (78181) - https://sketchapp.com -->
    <title>No Cell Icon8</title>
    <desc>Created with Sketch.</desc>
    <g id="No-Cell-Icon8" stroke="none" stroke-width="1" fill="none" fill-rule="evenodd">
        <g id="Line-Yellow" transform="translate(0.000000, 6.000000)">
            <rect id="Rectangle-8" fill="#FFD95D" x="1" y="1" width="14" height="2" rx="1"></rect>
            <path d="M2,1 C1.44771525,1 1,1.44771525 1,2 C1,2.55228475 1.44771525,3 2,3 L14,3 C14.5522847,3 15,2.55228475 15,2 C15,1.44771525 14.5522847,1 14,1 L2,1 Z M2,0 L14,0 C15.1045695,0 16,0.8954305 16,2 C16,3.1045695 15.1045695,4 14,4 L2,4 C0.8954305,4 0,3.1045695 0,2 C0,0.8954305 0.8954305,0 2,0 Z" id="Rectangle-8" fill="#EE8815" fill-rule="nonzero"></path>
        </g>
    </g>
</svg>