<?xml version="1.0" encoding="UTF-8"?>
<svg width="16px" height="16px" viewBox="0 0 16 16" version="1.1" xmlns="http://www.w3.org/2000/svg" xmlns:xlink="http://www.w3.org/1999/xlink">
    <!-- Generator: Sketch 55.2 (78181) - https://sketchapp.com -->
    <title>No Cell Icon45</title>
    <desc>Created with Sketch.</desc>
    <g id="No-Cell-Icon45" stroke="none" stroke-width="1" fill="none" fill-rule="evenodd">
        <g id="Layout3-Copy" transform="translate(1.000000, 0.000000)">
            <rect id="Rectangle-32-Copy" fill="#C1C8D8" x="12" y="0" width="3" height="16"></rect>
            <rect id="Rectangle-32-Copy-3" fill="#476CCF" x="0" y="10" width="3" height="6"></rect>
            <rect id="Rectangle-32-Copy-7" fill="#476CCF" x="4" y="7" width="3" height="9"></rect>
            <rect id="Rectangle-32-Copy-8" fill="#476CCF" x="8" y="3" width="3" height="13"></rect>
            <path d="M13,1 L13,15 L14,15 L14,1 L13,1 Z M12,0 L15,0 L15,16 L12,16 L12,0 Z" id="Rectangle-32-Copy" fill="#7281A6" fill-rule="nonzero"></path>
            <path d="M1,11 L1,15 L2,15 L2,11 L1,11 Z M0,10 L3,10 L3,16 L0,16 L0,10 Z" id="Rectangle-32-Copy-3" fill="#143CA9" fill-rule="nonzero"></path>
            <path d="M5,8 L5,15 L6,15 L6,8 L5,8 Z M4,7 L7,7 L7,16 L4,16 L4,7 Z" id="Rectangle-32-Copy-7" fill="#143CA9" fill-rule="nonzero"></path>
            <path d="M9,4 L9,15 L10,15 L10,4 L9,4 Z M8,3 L11,3 L11,16 L8,16 L8,3 Z" id="Rectangle-32-Copy-8" fill="#143CA9" fill-rule="nonzero"></path>
        </g>
    </g>
</svg>