<?xml version="1.0" encoding="UTF-8"?>
<svg width="16px" height="16px" viewBox="0 0 16 16" version="1.1" xmlns="http://www.w3.org/2000/svg" xmlns:xlink="http://www.w3.org/1999/xlink">
    <!-- Generator: Sketch 55.2 (78181) - https://sketchapp.com -->
    <title>No Cell Icon27</title>
    <desc>Created with Sketch.</desc>
    <g id="No-Cell-Icon27" stroke="none" stroke-width="1" fill="none" fill-rule="evenodd">
        <g id="Round-Correct-Green">
            <circle id="Oval-3" fill="#53B575" cx="8" cy="8" r="7"></circle>
            <path d="M8,15 C11.8659932,15 15,11.8659932 15,8 C15,4.13400675 11.8659932,1 8,1 C4.13400675,1 1,4.13400675 1,8 C1,11.8659932 4.13400675,15 8,15 Z M8,16 C3.581722,16 0,12.418278 0,8 C0,3.581722 3.581722,0 8,0 C12.418278,0 16,3.581722 16,8 C16,12.418278 12.418278,16 8,16 Z" id="Oval-3" fill="#2B8C5F" fill-rule="nonzero"></path>
            <polygon id="Path-3" fill="#FFFFFF" fill-rule="nonzero" points="11.5920221 5 13 6.33258796 7.03246119 13 3 8.74772099 4.36999322 7.37390378 6.99230911 10.1391675"></polygon>
        </g>
        <g id="Round-Correct-Green">
            <circle id="Oval-3" fill="#53B575" cx="8" cy="8" r="7"></circle>
            <path d="M8,15 C11.8659932,15 15,11.8659932 15,8 C15,4.13400675 11.8659932,1 8,1 C4.13400675,1 1,4.13400675 1,8 C1,11.8659932 4.13400675,15 8,15 Z M8,16 C3.581722,16 0,12.418278 0,8 C0,3.581722 3.581722,0 8,0 C12.418278,0 16,3.581722 16,8 C16,12.418278 12.418278,16 8,16 Z" id="Oval-3" fill="#2B8C5F" fill-rule="nonzero"></path>
            <polygon id="Path-3" fill="#FFFFFF" fill-rule="nonzero" points="11.5920221 5 13 6.33258796 7.03246119 13 3 8.74772099 4.36999322 7.37390378 6.99230911 10.1391675"></polygon>
        </g>
    </g>
</svg>